<svg width="136" height="57" viewBox="0 0 136 57" fill="none" xmlns="http://www.w3.org/2000/svg">
<path d="M24.2656 42.8973V22.6485L15.5291 37.151H14.8394L6.10297 22.6905V42.8973H6.06117C2.71707 42.8973 0 40.161 0 36.7932V17.7862C0 14.4184 2.71707 11.6821 6.06117 11.6821H6.29107L15.1947 26.4372L24.0566 11.6821H24.2865C27.6306 11.6821 30.3476 14.4184 30.3476 17.7862V36.7932C30.3476 40.161 27.6306 42.8973 24.2656 42.8973Z" fill="#62B635"/>
<path d="M39.7947 42.1185C38.1436 41.3818 36.8478 40.3504 35.8863 39.0244C34.9458 37.6773 34.4651 36.1196 34.4651 34.3305H39.8783C40.0037 35.6776 40.5263 36.7722 41.4459 37.6352C42.3864 38.4982 43.6822 38.9191 45.3752 38.9191C47.1099 38.9191 48.4894 38.4982 49.4508 37.6562C50.4331 36.8143 50.9138 35.7197 50.9138 34.3726C50.9138 33.3412 50.6003 32.4782 50.0151 31.8257C49.409 31.1732 48.6566 30.668 47.7579 30.3102C46.8591 29.9524 45.6051 29.5735 44.0167 29.1525C42.0102 28.6263 40.38 28.079 39.1259 27.5318C37.8719 26.9845 36.806 26.1215 35.9072 24.9638C35.0294 23.8061 34.5696 22.2485 34.5696 20.312C34.5696 18.5229 35.0085 16.9653 35.9072 15.6182C36.7851 14.271 38.0391 13.2607 39.6275 12.5451C41.216 11.8294 43.0761 11.4716 45.1662 11.4716C48.155 11.4716 50.6003 12.2293 52.5023 13.7238C54.4042 15.2182 55.4702 17.281 55.6792 19.9121H50.0987C50.0151 18.7755 49.4717 17.8072 48.5103 17.0074C47.5279 16.2075 46.253 15.8076 44.6437 15.8076C43.2015 15.8076 42.0102 16.1865 41.0906 16.9232C40.1709 17.6599 39.7111 18.7334 39.7111 20.1436C39.7111 21.0908 40.0037 21.8696 40.5681 22.4801C41.1533 23.0905 41.8848 23.5746 42.7626 23.9324C43.6404 24.2903 44.8527 24.6691 46.3993 25.0901C48.4476 25.6584 50.0987 26.2267 51.3946 26.7951C52.6904 27.3634 53.7772 28.2264 54.6759 29.4051C55.5747 30.5838 56.0345 32.1414 56.0345 34.12C56.0345 35.6987 55.6165 37.1931 54.7804 38.5823C53.9444 39.9716 52.7113 41.1082 51.1019 41.9501C49.4926 42.7921 47.5906 43.2131 45.3961 43.2131C43.306 43.2131 41.4459 42.8552 39.7947 42.1185Z" fill="url(#paint0_linear)"/>
<path d="M121.474 42.2659C119.948 41.5713 118.757 40.603 117.858 39.4032C116.98 38.2035 116.5 36.8563 116.437 35.3619H121.662C121.746 36.4143 122.247 37.2773 123.146 37.9719C124.045 38.6665 125.173 39.0244 126.532 39.0244C127.953 39.0244 129.061 38.7507 129.834 38.2035C130.608 37.6562 131.005 36.9405 131.005 36.0775C131.005 35.1514 130.566 34.4778 129.688 34.0148C128.81 33.5727 127.431 33.0676 125.55 32.5413C123.71 32.0362 122.226 31.5521 121.077 31.0679C119.927 30.5838 118.924 29.8682 118.088 28.8789C117.252 27.8896 116.834 26.6056 116.834 24.9848C116.834 23.6798 117.21 22.48 117.984 21.3855C118.757 20.291 119.844 19.449 121.286 18.8176C122.728 18.1861 124.358 17.8704 126.239 17.8704C129.019 17.8704 131.256 18.586 132.948 19.9963C134.641 21.4066 135.561 23.343 135.666 25.7847H130.629C130.545 24.6902 130.106 23.8061 129.291 23.1536C128.497 22.5011 127.41 22.1643 126.051 22.1643C124.714 22.1643 123.71 22.4169 123 22.9221C122.289 23.4272 121.934 24.1008 121.934 24.9427C121.934 25.5953 122.164 26.1425 122.644 26.5845C123.125 27.0266 123.69 27.3844 124.379 27.637C125.069 27.8896 126.072 28.2053 127.389 28.6052C129.165 29.0893 130.608 29.5735 131.757 30.0576C132.886 30.5417 133.868 31.2784 134.704 32.2256C135.54 33.1728 135.958 34.4357 135.979 36.0144C135.979 37.4036 135.603 38.6665 134.83 39.7611C134.056 40.8556 132.969 41.7186 131.569 42.3501C130.169 42.9815 128.518 43.2972 126.616 43.2972C124.735 43.2972 123 42.9605 121.474 42.2659Z" fill="url(#paint1_linear)"/>
<path d="M99.3822 30.2681C99.3822 30.247 99.3822 30.247 99.3822 30.226V30.0365C99.2568 23.1746 93.6972 17.6388 86.8419 17.6388C79.9238 17.6388 74.3015 23.3009 74.3015 30.2681C74.3015 37.2563 79.9238 42.9184 86.8419 42.9184C89.8515 42.9184 92.6104 41.8449 94.7632 40.0768C95.3066 41.7186 96.8323 42.9184 98.6507 42.9184H99.4031V30.3102C99.3822 30.2891 99.3822 30.2891 99.3822 30.2681ZM86.821 38.014C82.5781 38.014 79.1504 34.541 79.1504 30.2681C79.1504 25.9952 82.599 22.5432 86.821 22.5432C91.0638 22.5432 94.4915 25.9952 94.5124 30.247V30.3102C94.5124 34.562 91.0638 38.014 86.821 38.014Z" fill="url(#paint2_linear)"/>
<path d="M102.413 30.2681V42.8973H103.165C105.443 42.8973 107.283 41.045 107.283 38.7507V30.2681H107.262C107.262 25.9952 110.71 22.5432 114.932 22.5432V17.6388C108.16 17.6388 102.643 23.0483 102.392 29.805C102.413 29.8681 102.413 30.2681 102.413 30.2681Z" fill="url(#paint3_linear)"/>
<path d="M72.0651 38.014C67.8223 38.014 64.3946 34.541 64.3946 30.2891H64.4155V21.6802H66.2548C68.5329 21.6802 70.3722 19.8279 70.3722 17.5336H64.3737V12.1872H59.5248V30.2681C59.5248 30.2681 59.5248 30.668 59.5248 30.7312C59.7547 37.4878 65.2933 42.8973 72.0651 42.8973V38.014Z" fill="url(#paint4_linear)"/>
<path d="M25.0598 8.08272C29.4489 7.99853 33.002 4.42024 33.0856 0C33.1692 4.42024 36.7223 7.99853 41.1115 8.08272C36.7223 8.16692 33.1692 11.7452 33.0856 16.1654C33.002 11.7452 29.4489 8.16692 25.0598 8.08272Z" fill="url(#paint5_linear)"/>
<path d="M79.2967 52.7692C79.443 52.8323 79.5266 52.9796 79.5266 53.1691C79.5266 53.4006 79.3176 53.548 79.1295 53.548C79.0668 53.548 78.9832 53.5269 78.8369 53.4638L75.1166 51.7167C74.9703 51.6536 74.8867 51.5062 74.8867 51.3168C74.8867 51.1274 74.9703 51.0011 75.1166 50.9169L78.8369 49.1698C78.9623 49.1067 79.0668 49.0856 79.1295 49.0856C79.3385 49.0856 79.5266 49.233 79.5266 49.4645C79.5266 49.6539 79.443 49.7802 79.2967 49.8644L76.2035 51.3168L79.2967 52.7692Z" fill="#62B635"/>
<path d="M81.554 54.4741C81.554 54.411 81.5749 54.3057 81.6376 54.2005L84.6263 47.9701C84.689 47.8227 84.8144 47.7385 84.9816 47.7385C85.1906 47.7385 85.3788 47.928 85.3788 48.1385C85.3788 48.1805 85.3579 48.2858 85.2952 48.391L82.3064 54.6215C82.2437 54.7688 82.0974 54.853 81.9302 54.853C81.7212 54.8741 81.554 54.6846 81.554 54.4741Z" fill="#62B635"/>
<path d="M92.4223 54.3268C92.4432 54.3689 92.4432 54.4321 92.4432 54.4742C92.4432 54.7057 92.2551 54.8741 92.0252 54.8741C91.858 54.8741 91.7326 54.7899 91.6699 54.6005L91.0011 52.7482H88.4512L87.7824 54.6005C87.7197 54.7899 87.5943 54.8741 87.427 54.8741C87.1971 54.8741 87.009 54.7057 87.009 54.4742C87.009 54.4321 87.009 54.39 87.0299 54.3268L89.3499 47.928C89.4753 47.5912 89.9978 47.5912 90.1232 47.928L92.4223 54.3268ZM88.7438 51.9062H90.7084L89.7261 49.1909L88.7438 51.9062Z" fill="#62B635"/>
<path d="M98.2117 53.7795C98.2117 53.8847 98.149 54.011 98.0236 54.1373C97.6056 54.6214 96.895 54.9582 96.1843 54.9582C95.4319 54.9582 94.784 54.7056 94.3033 54.2005C93.8017 53.6953 93.5718 53.0638 93.5718 52.3271C93.5718 51.5904 93.8226 50.959 94.3033 50.4538C94.8049 49.9486 95.4319 49.696 96.1843 49.696C96.895 49.696 97.6056 50.0328 98.0236 50.5169C98.149 50.6432 98.2117 50.7695 98.2117 50.8748C98.2117 51.0852 98.0445 51.2536 97.8355 51.2536C97.7101 51.2536 97.6056 51.1905 97.5011 51.0432C97.2085 50.6853 96.7069 50.4327 96.2052 50.4327C95.0766 50.4327 94.3869 51.1905 94.3869 52.3061C94.3869 53.4427 95.0766 54.1794 96.2052 54.1794C96.7069 54.1794 97.2085 53.9268 97.5011 53.569C97.6056 53.4427 97.731 53.3585 97.8355 53.3585C98.0445 53.4006 98.2117 53.569 98.2117 53.7795Z" fill="#62B635"/>
<path d="M104.419 50.1802V54.4531C104.419 54.6636 104.252 54.853 104.022 54.853C103.813 54.853 103.646 54.7057 103.625 54.4952C103.249 54.8109 102.789 54.9583 102.266 54.9583C101.598 54.9583 101.033 54.7057 100.553 54.1795C100.072 53.6532 99.842 53.0428 99.842 52.3061C99.842 51.5694 100.072 50.9379 100.553 50.4328C101.033 49.9066 101.598 49.654 102.266 49.654C102.789 49.654 103.249 49.8013 103.625 50.117C103.646 49.9066 103.834 49.7592 104.022 49.7592C104.252 49.7803 104.419 49.9697 104.419 50.1802ZM103.604 53.6111V51.0432C103.249 50.6433 102.789 50.4328 102.246 50.4328C101.765 50.4328 101.389 50.6012 101.075 50.959C100.762 51.3168 100.615 51.7588 100.615 52.3061C100.615 52.8534 100.762 53.2954 101.075 53.6532C101.368 54.0111 101.765 54.1795 102.246 54.1795C102.789 54.2005 103.249 54.0111 103.604 53.6111Z" fill="#62B635"/>
<path d="M110.669 54.4531C110.669 54.6636 110.501 54.853 110.271 54.853C110.062 54.853 109.895 54.7056 109.874 54.4952C109.498 54.8109 109.038 54.9582 108.516 54.9582C107.847 54.9582 107.283 54.7056 106.802 54.1794C106.321 53.6532 106.091 53.0428 106.091 52.3061C106.091 51.5694 106.321 50.9379 106.802 50.4328C107.283 49.9065 107.847 49.654 108.516 49.654C109.038 49.654 109.477 49.8013 109.874 50.096V47.7175C109.874 47.507 110.042 47.3176 110.271 47.3176C110.501 47.3176 110.669 47.507 110.669 47.7175V54.4531ZM109.874 53.6111V51.0432C109.519 50.6432 109.059 50.4328 108.516 50.4328C108.035 50.4328 107.659 50.6012 107.345 50.959C107.032 51.3168 106.886 51.7588 106.886 52.3061C106.886 52.8534 107.032 53.2954 107.345 53.6532C107.638 54.011 108.035 54.1794 108.516 54.1794C109.059 54.2005 109.519 54.011 109.874 53.6111Z" fill="#62B635"/>
<path d="M116.771 52.5587H113.135C113.218 53.5269 113.887 54.2005 114.849 54.2005C115.455 54.2005 115.935 53.99 116.249 53.5901C116.353 53.4638 116.479 53.3796 116.583 53.3796C116.792 53.3796 116.96 53.548 116.96 53.7585C116.96 53.8637 116.897 53.99 116.771 54.1163C116.291 54.6635 115.643 54.9372 114.828 54.9372C114.075 54.9372 113.448 54.6846 112.988 54.1794C112.529 53.6743 112.299 53.0428 112.299 52.285C112.299 51.5483 112.529 50.9379 113.009 50.4117C113.49 49.8855 114.054 49.6329 114.723 49.6329C116.207 49.6329 117.127 50.5591 117.148 52.1167C117.189 52.3692 117.001 52.5587 116.771 52.5587ZM113.177 51.8641H116.332C116.27 50.98 115.705 50.4538 114.744 50.4538C113.971 50.4328 113.344 51.0011 113.177 51.8641Z" fill="#62B635"/>
<path d="M123.585 54.4531C123.585 54.6636 123.418 54.853 123.188 54.853C122.958 54.853 122.791 54.6636 122.791 54.4531V51.4642C122.791 50.7906 122.582 50.4538 122.185 50.4538C121.892 50.4538 121.579 50.7906 121.432 51.2116V51.3589V54.4531C121.432 54.6636 121.244 54.853 121.035 54.853C120.826 54.853 120.638 54.6636 120.638 54.4531V51.4642C120.638 50.7906 120.429 50.4538 120.032 50.4538C119.739 50.4538 119.426 50.7906 119.279 51.1905V54.4531C119.279 54.6636 119.112 54.853 118.882 54.853C118.652 54.853 118.485 54.6636 118.485 54.4531V50.1802C118.485 49.9697 118.652 49.7803 118.882 49.7803C119.112 49.7803 119.279 49.9697 119.279 50.1802V50.2012C119.572 49.8434 119.886 49.654 120.241 49.654C120.763 49.654 121.119 49.9066 121.307 50.4117C121.62 49.9066 121.997 49.654 122.415 49.654C123.271 49.654 123.627 50.3907 123.627 51.3379V54.4531H123.585Z" fill="#62B635"/>
<path d="M129.813 50.1591C129.813 50.2223 129.792 50.3275 129.73 50.4328L126.678 56.7685C126.595 56.9158 126.469 57 126.302 57C126.072 57 125.905 56.8105 125.905 56.6211C125.905 56.558 125.926 56.4527 125.989 56.3475L126.846 54.5794L124.86 50.4538C124.818 50.3486 124.776 50.2433 124.776 50.1802C124.776 49.9697 124.944 49.8013 125.173 49.8013C125.341 49.8013 125.466 49.8855 125.55 50.0328L127.305 53.6532L129.061 50.0328C129.124 49.8855 129.27 49.8013 129.437 49.8013C129.625 49.7803 129.813 49.9697 129.813 50.1591Z" fill="#62B635"/>
<path d="M135.624 50.9169C135.77 50.98 135.854 51.1274 135.854 51.3168C135.854 51.5062 135.77 51.6325 135.624 51.7167L131.903 53.4638C131.778 53.5269 131.674 53.548 131.611 53.548C131.402 53.548 131.214 53.4006 131.214 53.1691C131.214 52.9796 131.297 52.8533 131.444 52.7692L134.537 51.3168L131.444 49.8644C131.297 49.8013 131.214 49.6539 131.214 49.4645C131.214 49.233 131.423 49.0856 131.611 49.0856C131.674 49.0856 131.757 49.1067 131.903 49.1698L135.624 50.9169Z" fill="#62B635"/>
<defs>
<linearGradient id="paint0_linear" x1="32" y1="13.5" x2="128" y2="37.5" gradientUnits="userSpaceOnUse">
<stop stop-color="#05C8F8"/>
<stop offset="1" stop-color="#0199FE"/>
</linearGradient>
<linearGradient id="paint1_linear" x1="32.5" y1="9" x2="133.5" y2="43" gradientUnits="userSpaceOnUse">
<stop stop-color="#05C8F8"/>
<stop offset="1" stop-color="#0199FE"/>
</linearGradient>
<linearGradient id="paint2_linear" x1="27.5" y1="9.5" x2="123" y2="41" gradientUnits="userSpaceOnUse">
<stop stop-color="#05C8F8"/>
<stop offset="1" stop-color="#0199FE"/>
</linearGradient>
<linearGradient id="paint3_linear" x1="29" y1="7.5" x2="132" y2="43" gradientUnits="userSpaceOnUse">
<stop stop-color="#05C8F8"/>
<stop offset="1" stop-color="#0199FE"/>
</linearGradient>
<linearGradient id="paint4_linear" x1="29.5" y1="9" x2="135" y2="43" gradientUnits="userSpaceOnUse">
<stop stop-color="#05C8F8"/>
<stop offset="1" stop-color="#0199FE"/>
</linearGradient>
<linearGradient id="paint5_linear" x1="33.0856" y1="0" x2="33.0856" y2="16.1654" gradientUnits="userSpaceOnUse">
<stop stop-color="#05C8F8"/>
<stop offset="1" stop-color="#0199FE"/>
</linearGradient>
</defs>
</svg>
